<?xml version="1.0" encoding="utf-8"?>
<!-- Generator: Adobe Illustrator 19.0.1, SVG Export Plug-In . SVG Version: 6.00 Build 0)  -->
<svg version="1.1" id="Layer_1" xmlns="http://www.w3.org/2000/svg" xmlns:xlink="http://www.w3.org/1999/xlink" x="0px" y="0px"
	 viewBox="0 0 389.5 120" style="enable-background:new 0 0 389.5 120;" xml:space="preserve">
<style type="text/css">
	.st0{fill:#1B0088;}
	.st1{fill:#ED1650;}
</style>
<g>
	<path class="st0" d="M222.6,63.6h11.8V30.8l20.6-1.4v-8.5h-53v8.5l20.6,1.4V63.6z M137.5,63.6l4.8-9.8h-28.6V20.9h-12.3v42.7H137.5
		z M183,47.1h-15.9l8-17.1L183,47.1z M289.7,47.1h-15.9l8-17.1L289.7,47.1z M343.6,53.2c0.5,1.5,2.3,2.6,4.2,2.6h12.3l9.1-25.1
		l8.6,33h11.5l-9.5-37.9c-0.9-3.8-3-4.8-6.5-4.8h-12l-8.6,25l-6.8-21.2c-0.9-2.7-2.6-3.8-5.3-3.8h-13.5L316,63.6h11.7l8.5-33
		L343.6,53.2z M297.7,63.6h12.9l-20.3-40c-1.1-2-2.1-2.7-4.5-2.7h-11.2l-21.4,42.7h13l3.8-7.9h23.9L297.7,63.6z M190.9,63.6h13
		l-20.3-40c-1.1-2-2.1-2.7-4.5-2.7h-11.2l-21.4,42.7h13l3.8-7.9h23.9L190.9,63.6z"/>
	<g>
		<path class="st0" d="M17.7,77.1V64c48.9-17.8,48.9-17.8,51.5-18.7c4.3-1.6,5.1-3.1,3.2-3.8c1.9,0.7,1.9,0.9,1.9,6.7
			c0,6.2-0.1,8.3-2.6,9.3L17.7,77.1z M30.3,107.2c0-2.7,0.3-5-2.1-4.2l-10.4,3.8v13l10.1-3.7c2.5-0.9,2.4-3.5,2.4-5.8V107.2z
			 M46.5,79.8c0-2.7,0.3-5-2.1-4.2l-26.6,9.7l0,13.1l26-9.5c2.6-0.9,2.7-2.7,2.7-5.5V79.8z M72.5,20.2c2,0.7,1.2,2.1-3.2,3.7
			c-2.1,0.8-45.5,16.5-61.7,22.3v0c-0.4,0.2-0.8,0.3-1.2,0.4c-1.5,0.5-2.7,1-3.5,1.3c-1.7,0.5-2.4,0.3-2.5-1.2c0,1,0,3,1.7,3.6
			l14.1,5.1c0,0,1,0.3,2,0c2.3-0.8,11.7-4.3,53.5-19.4c2.6-0.9,2.7-3,2.7-9.1C74.4,21.1,74.4,20.8,72.5,20.2"/>
		<g>
			<path class="st1" d="M0.3,46.7c0.1,1.6,0.8,1.8,2.5,1.2c0.8-0.3,2-0.7,3.5-1.3c0.4-0.1,0.8-0.3,1.2-0.4v0c2.6-1,6-2.2,9.8-3.5
				c-6.3-2.3-11.4-4.2-14.2-5.2c-1.6-0.6-2.8-1.2-2.8,0.5L0.3,46.7c0,0.2,0,0.3,0,0.5C0.4,47,0.3,46.8,0.3,46.7z"/>
			<g>
				<path class="st1" d="M58.1,49.3c0,0,10.4-3.8,11.2-4.1c4.3-1.6,5.1-3.1,3.2-3.8c0.1,0,0.2,0.1,0.3,0.1c-0.2-0.1-0.4-0.2-0.6-0.2
					c-0.6-0.2-7.5-2.7-7.5-2.7l-18,6.5L58.1,49.3z M28.7,38.6l18-6.5c0,0-37-13.4-43.5-15.8c-1.6-0.6-2.8-1.2-2.8,0.5v6.6
					c0,3.7,1.8,5.6,5.4,6.9L28.7,38.6z"/>
				<path class="st1" d="M23.2,15.4L57.9,28c6.1-2.2,10.7-3.9,11.3-4.1c4.3-1.6,5.2-3,3.2-3.7C55.7,14.1,27,3.7,20.5,1.3
					c-1.6-0.6-2.8-1.2-2.8,0.5v6.6C17.7,12.1,19.7,14.1,23.2,15.4z"/>
			</g>
		</g>
	</g>
	<g>
		<g>
			<g>
				<path class="st0" d="M133.1,86.5l-1.4,3.6c0,0-4.4-2.3-10.8-2.3c-8.3,0-16.4,4.9-16.4,14.6c0,9.5,7.9,14.1,16.5,14.1
					c6.7,0,11.3-2.5,11.3-2.5l1.2,3.6c0,0-5.2,2.7-12.7,2.7c-11.4,0-20.6-6.2-20.6-17.9c0-11.9,9.3-18.4,20.4-18.4
					C128,83.9,133.1,86.5,133.1,86.5z"/>
				<path class="st0" d="M172.6,110.1H150l-4.9,9.6h-4.5l18.3-35.2h2.7c1.4,0,2.2,0.5,2.8,1.6l17.6,33.6h-4.5L172.6,110.1z
					 M161.2,88.1l-9.3,18.2h18.7L161.2,88.1z"/>
				<path class="st0" d="M197.2,106.5v13.2h-4.2V84.5h18.8c9.4,0,14.5,4.5,14.5,11.2c0,5.3-2.9,9.3-8.4,11.4l8.2,12.6h-5l-7.5-11.5
					c-1.7,0.3-3.5,0.4-5.5,0.4C204,108.6,199.8,107.7,197.2,106.5z M222.2,95.9c0-3.9-2.8-7.6-10.8-7.6h-14.2v14.3
					c2.9,1.3,6.8,2.2,10.9,2.2C218.5,104.8,222.2,100.7,222.2,95.9z"/>
				<path class="st0" d="M256.2,120.2c-11.4,0-20.6-6.2-20.6-17.9c0-11.9,9.5-18.4,20.7-18.4c7.7,0,13.3,2.5,13.3,2.5l-1.3,3.4
					c0,0-4.7-2.1-11.8-2.1c-8.5,0-16.7,4.9-16.7,14.6c0,9.5,7.9,14.1,16.5,14.1c3.9,0,7.1-0.8,9.6-1.7V103h4v14.2
					C270,117.2,264.3,120.2,256.2,120.2z"/>
				<path class="st0" d="M319.7,101.9c0,10-6.9,18.3-19.2,18.3c-12.5,0-19.3-8.3-19.3-18.3c0-9.8,6.9-18,19.3-18
					C312.7,83.9,319.7,92.1,319.7,101.9z M285.3,101.9c0,8.5,5.7,14.6,15.1,14.6c9.4,0,15.1-6,15.1-14.6c0-8.4-5.7-14.3-15.1-14.3
					C291,87.7,285.3,93.5,285.3,101.9z"/>
			</g>
		</g>
	</g>
</g>
</svg>
