<?xml version="1.0" encoding="utf-8"?>
<!-- Generator: Adobe Illustrator 19.0.1, SVG Export Plug-In . SVG Version: 6.00 Build 0)  -->
<svg version="1.1" id="Layer_1" xmlns="http://www.w3.org/2000/svg" xmlns:xlink="http://www.w3.org/1999/xlink" x="0px" y="0px"
	 viewBox="19.2 141.9 576 39.9" style="enable-background:new 19.2 141.9 576 39.9;" xml:space="preserve">
<style type="text/css">
	.st0{fill:#1B0088;}
</style>
<g>
	<path class="st0" d="M19.2,142.6h4.6V177H48l-2.1,4.1H19.2V142.6z"/>
	<path class="st0" d="M85.9,170.6H61.1l-5.4,10.5h-4.9l20-38.5h3c1.5,0,2.4,0.5,3.1,1.8l19.2,36.7h-4.9L85.9,170.6z M73.5,146.5
		l-10.2,20h20.5L73.5,146.5z"/>
	<path class="st0" d="M128.1,142.6v3.6l-17.3,0.7v34.3h-4.6v-34.3L89,146.1v-3.5H128.1z"/>
	<path class="st0" d="M156,170.6h-24.7l-5.4,10.5H121l20-38.5h3c1.5,0,2.4,0.5,3.1,1.8l19.2,36.7h-4.9L156,170.6z M143.6,146.5
		l-10.2,20h20.5L143.6,146.5z"/>
	<path class="st0" d="M183.3,146.8l-9.8,34.3h-4.7l11.3-38.5h3.7c1.6,0,2.5,0.6,3.1,1.8l11.7,24.2l12.8-26h3.9c1.8,0,2.6,0.7,3,2.3
		l10,36.2h-4.5l-9.6-34.5l-13.3,26.7H198c-1.4,0-2.1-0.4-2.7-1.6L183.3,146.8z"/>
	<path class="st0" d="M253.2,142.6h31v4.1h-26.5v12.4h23.8v4.1h-23.8V177h26.5l-1.2,4.1h-29.8V142.6z"/>
	<path class="st0" d="M302.1,146.8l-9.8,34.3h-4.7l11.3-38.5h3.7c1.6,0,2.5,0.6,3.1,1.8l11.7,24.2l12.8-26h3.9c1.8,0,2.6,0.7,3,2.3
		l10,36.2h-4.5l-9.6-34.5l-13.3,26.7h-2.9c-1.4,0-2.1-0.4-2.7-1.6L302.1,146.8z"/>
	<path class="st0" d="M357.9,166.6v14.5h-4.6v-38.5h20.6c10.3,0,15.9,5,15.9,12.3c0,8.6-6.9,14.1-19.9,14.1
		C365.3,169,360.7,168,357.9,166.6z M385.3,155c0-4.3-3.1-8.3-11.8-8.3h-15.6v15.7c3.1,1.4,7.5,2.4,11.9,2.4
		C381.2,164.8,385.3,160.4,385.3,155z"/>
	<path class="st0" d="M401.5,166.6v14.5H397v-38.5h20.6c10.3,0,15.9,4.9,15.9,12.3c0,5.8-3.1,10.2-9.2,12.4l9,13.8h-5.4l-8.2-12.6
		c-1.8,0.3-3.8,0.4-6,0.4C409,169,404.3,168,401.5,166.6z M428.9,155c0-4.3-3.1-8.3-11.8-8.3h-15.6v15.7c3.1,1.4,7.5,2.4,11.9,2.4
		C424.8,164.8,428.9,160.4,428.9,155z"/>
	<path class="st0" d="M471.9,142.6v4.1h-26.5v12.4h23.8v4.1h-23.8V177h27.1v4.1h-31.6v-38.5H471.9z"/>
	<path class="st0" d="M510.1,144.2l-1.5,4.1c-2-0.8-6.4-2.3-13-2.3c-7.9,0-12.3,3-12.3,6.7c0,3.5,2.8,5.3,10,6.5l3.3,0.5
		c9.5,1.6,15.1,4.6,15.1,10.8c0,6.8-6.2,11.3-17.7,11.3c-8.9,0-14.8-2.4-16.7-3.5l1.4-4.1c1.7,1.2,7.9,3.4,15.8,3.5
		c8.6,0,12.5-2.9,12.5-6.9c0-3.7-3.6-5.7-11.5-7l-3.3-0.6c-8.2-1.4-13.6-4.2-13.6-10.3c0-6.5,6.7-11,17.4-11
		C502.8,142,507.7,143.3,510.1,144.2z"/>
	<path class="st0" d="M549.3,170.6h-24.7l-5.4,10.5h-4.9l20-38.5h3c1.5,0,2.4,0.5,3.1,1.8l19.2,36.7h-4.9L549.3,170.6z M536.8,146.5
		l-10.2,20h20.5L536.8,146.5z"/>
	<path class="st0" d="M593.6,144.2l-1.5,4.1c-2-0.8-6.4-2.3-13-2.3c-7.9,0-12.3,3-12.3,6.7c0,3.5,2.8,5.3,10,6.5l3.3,0.5
		c9.5,1.6,15.1,4.6,15.1,10.8c0,6.8-6.2,11.3-17.7,11.3c-8.9,0-14.8-2.4-16.7-3.5l1.4-4.1c1.7,1.2,7.9,3.4,15.8,3.5
		c8.6,0,12.5-2.9,12.5-6.9c0-3.7-3.6-5.7-11.5-7l-3.3-0.6c-8.2-1.4-13.6-4.2-13.6-10.3c0-6.5,6.7-11,17.4-11
		C586.3,142,591.2,143.3,593.6,144.2z"/>
</g>
</svg>
